<svg width="14" height="14" viewBox="0 0 14 14" fill="none" xmlns="http://www.w3.org/2000/svg">
<path d="M13.9154 6.64481C12.5973 4.07304 9.98787 2.33301 6.99999 2.33301C4.0121 2.33301 1.40193 4.07426 0.08457 6.64506C0.0289691 6.75504 0 6.87656 0 6.9998C0 7.12304 0.0289691 7.24455 0.08457 7.35454C1.40266 9.92631 4.0121 11.6663 6.99999 11.6663C9.98787 11.6663 12.598 9.92509 13.9154 7.35429C13.971 7.24431 14 7.12279 14 6.99955C14 6.87631 13.971 6.7548 13.9154 6.64481ZM6.99999 10.4997C6.30775 10.4997 5.63106 10.2944 5.05549 9.90982C4.47992 9.52523 4.03131 8.97861 3.76641 8.33907C3.5015 7.69953 3.43219 6.99579 3.56724 6.31686C3.70229 5.63793 4.03563 5.01428 4.52511 4.5248C5.0146 4.03532 5.63824 3.70197 6.31717 3.56693C6.9961 3.43188 7.69984 3.50119 8.33938 3.7661C8.97892 4.031 9.52555 4.47961 9.91013 5.05518C10.2947 5.63075 10.5 6.30744 10.5 6.99967C10.5002 7.45936 10.4098 7.91459 10.234 8.33933C10.0582 8.76407 9.80041 9.15 9.47536 9.47505C9.15031 9.8001 8.76438 10.0579 8.33964 10.2337C7.9149 10.4095 7.45968 10.4999 6.99999 10.4997ZM6.99999 4.66634C6.79172 4.66925 6.5848 4.70024 6.38481 4.75846C6.54966 4.98248 6.62876 5.25815 6.60778 5.53549C6.5868 5.81284 6.46712 6.07347 6.27045 6.27014C6.07378 6.46681 5.81315 6.58649 5.53581 6.60747C5.25847 6.62845 4.98279 6.54935 4.75877 6.3845C4.63121 6.85447 4.65423 7.35261 4.82461 7.80881C4.99499 8.265 5.30413 8.65629 5.70854 8.92758C6.11294 9.19888 6.59224 9.33652 7.07897 9.32115C7.5657 9.30577 8.03536 9.13815 8.42183 8.84187C8.80831 8.54559 9.09214 8.13557 9.23338 7.66953C9.37462 7.20349 9.36616 6.70489 9.20919 6.24391C9.05222 5.78293 8.75464 5.38278 8.35833 5.09978C7.96203 4.81679 7.48696 4.66519 6.99999 4.66634Z" fill="#27272A"/>
</svg>
