<svg width="14" height="14" viewBox="0 0 14 14" fill="none" xmlns="http://www.w3.org/2000/svg">
<g clip-path="url(#clip0_1971_5080)">
<path d="M6.99995 10.1504C5.34073 10.1504 3.99761 8.86617 3.87402 7.23867L1.57933 5.46526C1.27767 5.8437 1.00008 6.24379 0.776078 6.68129C0.726037 6.78028 0.699965 6.88964 0.699965 7.00056C0.699965 7.11147 0.726037 7.22084 0.776078 7.31982C1.96236 9.63442 4.31086 11.2004 6.99995 11.2004C7.58861 11.2004 8.15648 11.1129 8.7038 10.9716L7.5687 10.0934C7.38124 10.1296 7.19087 10.1487 6.99995 10.1504ZM13.8648 11.4214L11.4465 9.55239C12.1811 8.9333 12.7852 8.17433 13.2238 7.3196C13.2739 7.22062 13.2999 7.11126 13.2999 7.00034C13.2999 6.88942 13.2739 6.78006 13.2238 6.68107C12.0375 4.36648 9.68905 2.80045 6.99995 2.80045C5.87372 2.80181 4.76577 3.08534 3.77733 3.62514L0.99439 1.47417C0.9581 1.44593 0.916601 1.42512 0.872265 1.41292C0.827929 1.40073 0.781624 1.39739 0.735997 1.4031C0.69037 1.40881 0.646315 1.42345 0.60635 1.44619C0.566385 1.46893 0.531292 1.49933 0.503078 1.53564L0.0736714 2.08842C0.0167086 2.16169 -0.00881606 2.2546 0.00271121 2.34669C0.0142385 2.43879 0.0618737 2.52253 0.13514 2.57951L13.0055 12.5267C13.0418 12.555 13.0833 12.5758 13.1276 12.588C13.172 12.6002 13.2183 12.6035 13.2639 12.5978C13.3095 12.5921 13.3536 12.5774 13.3936 12.5547C13.4335 12.532 13.4686 12.5016 13.4968 12.4653L13.9265 11.9125C13.9834 11.8392 14.0089 11.7463 13.9973 11.6542C13.9857 11.5621 13.9381 11.4783 13.8648 11.4214ZM9.84589 8.31514L8.9862 7.65057C9.0586 7.44133 9.097 7.22184 9.09995 7.00045C9.10422 6.67632 9.03241 6.3557 8.8903 6.06436C8.74818 5.77302 8.53971 5.51906 8.28164 5.3229C8.02358 5.12674 7.7231 4.99384 7.40435 4.93487C7.0856 4.8759 6.75746 4.8925 6.4463 4.98335C6.57821 5.1621 6.64956 5.3783 6.64995 5.60045C6.64669 5.67437 6.63539 5.74772 6.61626 5.8192L5.00605 4.57473C5.56539 4.10731 6.27102 3.85099 6.99995 3.85045C7.41368 3.85022 7.8234 3.93154 8.20568 4.08976C8.58796 4.24798 8.9353 4.48 9.22785 4.77255C9.5204 5.0651 9.75242 5.41244 9.91064 5.79472C10.0689 6.177 10.1502 6.58672 10.15 7.00045C10.15 7.4736 10.0342 7.9146 9.84589 8.31535V8.31514Z" fill="#27272A"/>
</g>
<defs>
<clipPath id="clip0_1971_5080">
<rect width="14" height="14" fill="white"/>
</clipPath>
</defs>
</svg>
